<svg width="47" height="48" viewBox="0 0 47 48" fill="none" xmlns="http://www.w3.org/2000/svg">
<g filter="url(#filter0_i_82_667)">
<path d="M13.2084 13.5238C11.2948 9.80952 11.1548 6.66667 11.7615 3.2381C4.71394 7.38095 0 15.1429 0 24C0 31.0476 2.98705 37.3809 7.74766 41.8095C8.63445 38.0952 10.6414 35.2381 12.6483 31.5238C15.4953 26.2857 16.1954 19.2381 13.2084 13.5238ZM31.1307 18.5238C32.1108 18.5238 32.8576 19.3333 32.8576 20.2857C32.8576 21.2857 32.0641 22.0476 31.1307 22.0476C30.1972 22.0476 29.4038 21.2381 29.4038 20.2857C29.3571 19.2857 30.1505 18.5238 31.1307 18.5238ZM22.0762 18.5238C23.0563 18.5238 23.8031 19.3333 23.8031 20.2857C23.8031 21.2857 23.0096 22.0476 22.0762 22.0476C21.1427 22.0476 20.3493 21.2381 20.3493 20.2857C20.3493 19.2857 21.1427 18.5238 22.0762 18.5238ZM23.5697 0C22.0295 0 20.536 0.142857 19.0425 0.428571L18.7624 1.85714C17.969 5.85714 19.7425 8.7619 23.663 10.0952C28.657 11.8095 34.3044 14.0952 37.6182 18.4286C41.5387 23.5238 40.3252 30.8095 35.0979 34.5238C34.3978 35 33.6043 35.381 32.7175 35.6667V28.4286C32.7175 27.9524 32.3442 27.619 31.9241 27.619H19.7425C19.2758 27.619 18.9491 28 18.9491 28.4286C18.9491 28.8571 19.3225 29.2381 19.7425 29.2381H22.2162C22.1695 30.5714 22.3095 32.1905 22.963 33.4286C23.523 34.4762 24.5498 34.8095 25.5766 34.2857C26.1367 34 26.4634 33.5238 26.7434 33.1429C27.1168 32.619 27.3035 32.4286 27.6302 32.4286C27.8169 32.4286 27.8169 32.4762 27.8636 32.4762C28.1436 32.8095 28.1436 34.0476 28.097 34.9048C28.097 35.4762 28.0503 36.0476 28.097 36.5714C22.1228 37.3333 15.542 37.4286 14.8886 44.7619L14.7019 46.2381C17.4089 47.3333 20.396 48 23.4764 48C36.4514 48 46.9994 37.2381 46.9994 24C47.0927 10.7619 36.5447 0 23.5697 0ZM31.1307 36.0952V36.6667C31.1307 37 30.8506 37.2381 30.6173 37.381C30.4306 37.4762 30.1972 37.4762 30.0105 37.2857C29.8705 37.1429 29.8238 36.7619 29.7772 36.3333C29.7305 35.9048 29.7772 35.381 29.7772 34.9524C29.8238 33.5714 29.8238 32.1429 29.0771 31.3333C28.8437 31.0952 28.377 30.7619 27.6769 30.7619C26.5101 30.7619 25.9033 31.5238 25.4833 32.0952C25.2499 32.3809 25.0632 32.6667 24.8299 32.7619C24.6432 32.8571 24.5965 32.9048 24.4098 32.5714C23.9898 31.8095 23.8497 30.7143 23.8497 29.1905H31.1307V36.0952Z" fill="#10B981"/>
</g>
<defs>
<filter id="filter0_i_82_667" x="0" y="0" width="47" height="52" filterUnits="userSpaceOnUse" color-interpolation-filters="sRGB">
<feFlood flood-opacity="0" result="BackgroundImageFix"/>
<feBlend mode="normal" in="SourceGraphic" in2="BackgroundImageFix" result="shape"/>
<feColorMatrix in="SourceAlpha" type="matrix" values="0 0 0 0 0 0 0 0 0 0 0 0 0 0 0 0 0 0 127 0" result="hardAlpha"/>
<feOffset dy="4"/>
<feGaussianBlur stdDeviation="2"/>
<feComposite in2="hardAlpha" operator="arithmetic" k2="-1" k3="1"/>
<feColorMatrix type="matrix" values="0 0 0 0 0 0 0 0 0 0 0 0 0 0 0 0 0 0 0.25 0"/>
<feBlend mode="normal" in2="shape" result="effect1_innerShadow_82_667"/>
</filter>
</defs>
</svg>
